<?xml version="1.0" encoding="utf-8"?>
<!-- Generator: Adobe Illustrator 23.0.5, SVG Export Plug-In . SVG Version: 6.00 Build 0)  -->
<svg version="1.1" id="Layer_1" xmlns="http://www.w3.org/2000/svg" xmlns:xlink="http://www.w3.org/1999/xlink" x="0px" y="0px"
	 viewBox="0 0 2500 870" style="enable-background:new 0 0 2500 870;" xml:space="preserve">
<style type="text/css">
	.st0{fill:#FFFFFF;}
</style>
<g>
	<path class="st0" d="M304,422c10.4-10.6,20.3-20.4,31.3-31.5c-2.5-2-5.4-4.1-8-6.6c-5.4-5.2-10.7-10.4-15.7-16
		c-18-20.6-20.6-52.1-6.4-74.5c15.4-24.4,43.5-35.6,70.9-28.3c47.8,12.7,63.1,71.6,27.9,107.3c-6.3,6.4-12.9,12.7-19,18.7
		c10.4,10.3,20.3,20.3,30.6,30.6c6.3-6.3,12.7-13.1,19.3-19.7c22.9-22.6,57.4-25.2,83.2-6.1c24,17.8,32.2,49.9,19.8,77.5
		c-11.8,26.4-41.5,41.3-70.2,35.6c-12.7-2.6-23.6-8.4-32.7-17.7c-6.6-6.6-13.2-13.4-19.5-19.8c-10.3,10.4-20.1,20.3-30.7,31
		c5.4,5.2,11.4,11.1,17.4,16.7c13.1,12.3,20.3,27.3,21,45.5c1.2,26.1-14.9,51.1-39.3,61.1c-25,10.1-53.6,3.8-71.2-16
		c-23.3-26.3-22.3-63.6,2.8-88.4c6.4-6.4,13.1-12.9,19.5-19.3c-10.4-10.3-20.4-20.1-30.9-30.4c-5.8,6-12,12.4-18.4,18.7
		c-21.5,21.3-53,26-78.3,11.4c-24.7-14.3-36.9-43.3-29.6-71.6c6.8-26.9,31.2-46.2,59.4-47.1c18.9-0.6,35,6,48.2,19.3
		C291.6,409.3,297.9,415.7,304,422z M434.6,448.1c4.9,4.9,10.9,10,16,15.8c9.1,10.6,20.4,13.4,33.6,11.7
		c16.3-2.1,28.1-18.6,24.4-34.5c-4.9-21.5-32.9-31.5-50.8-17.4C449.1,430.5,442.5,439.5,434.6,448.1z M359.8,366.5
		c7.4-7.1,15.2-14.1,22.3-21.7c6.3-6.8,7.7-15.2,6-24.3c-2.1-11.2-11.4-20.4-22.7-22.4c-12.7-2.3-24.3,2.9-30.7,13.8
		c-6,10-5.5,23.2,2,31.6C343.8,351.7,351.9,358.9,359.8,366.5z M279.9,446.2c-6.8-6.6-13.5-13.4-20.4-20.1
		c-11.2-10.9-28.7-10.9-40.1-0.2c-11.4,10.6-12.3,28.3-2.3,39.6c10.7,12.3,28.4,14.3,40.5,3.7C265.3,462.4,272.1,454.4,279.9,446.2z
		 M360.4,527.7c-7.8,7.4-16.3,14.1-23.3,22.1c-10.1,11.5-8.3,28.4,3.4,39.2c10.9,10.1,27.9,9.8,39.2-0.6c10.7-10,12.6-27.6,3.1-38.7
		C375.6,541.7,367.4,534.6,360.4,527.7z M359.8,476.2c9.7-9.8,19.7-19.7,29-29.2c-9.7-9.7-19.5-19.5-28.6-28.6
		c-9.7,9.5-19.8,19.3-29.2,28.7C340.6,456.6,350.3,466.6,359.8,476.2z"/>
	<path class="st0" d="M1195.5,546.6c-14.6,0-28.6,0-43.3,0c0-2,0-3.8,0-5.7c0-34.5,0-69.3,0-103.8c0-10.7-0.9-21.5-5.1-31.5
		c-5.1-12-14-19-27-20.1c-24-2-38.1,9.4-41.5,33.5c-0.8,6.3-1.2,12.6-1.2,18.9c-0.2,34.2,0,68.6,0,102.9c0,1.8,0,3.7,0,5.8
		c-14.7,0-28.9,0-43.5,0c0-62.6,0-125,0-187.8c14,0,27.9,0,42.7,0c0,11.7,0,23.6,0,35.5c0.5,0.2,0.8,0.5,1.2,0.6
		c11.1-26.3,29.8-41.9,59.1-40.5c29.2,1.2,46.4,18.4,56,45.9c1.2-2.9,2.1-4.9,3.1-7.1c14-33.5,49.3-48.1,82.6-33.9
		c15,6.3,24.1,18.1,29.6,33c4.3,11.5,5.8,23.6,5.8,35.8c0,37.9,0,76,0,113.9c0,1.4-0.2,2.9-0.2,4.6c-14.6,0-28.7,0-43.5,0
		c0-1.8,0-3.5,0-5.2c0-35.5,0-70.9,0-106.4c0-9.8-1.1-19.7-4.9-28.9c-5.1-12.4-14.1-19.5-27.6-20.6c-22-1.8-35,7.4-39.9,28.9
		c-1.5,6.3-2.1,13.1-2.3,19.7c-0.3,35.6-0.2,71.2-0.2,106.9C1195.5,542.6,1195.5,544.3,1195.5,546.6z"/>
	<path class="st0" d="M772.4,401.2c0-40.4,0-79.8,0-119.6c14.4,0,28.6,0,42.8,0c0,88.4,0,176.6,0,265c-14.3,0-28.3,0-42.7,0
		c0-12.6,0-25,0-37.6c-0.3-0.2-0.6-0.2-0.9-0.3c-1.7,2.9-3.2,6-5.1,8.9c-30.2,45.9-93.5,44.4-121.9-2.8c-13.2-22-17.4-45.8-16-70.9
		c1.1-19,6-37,16-53.3c19-31.2,56.7-44.5,88.8-31.2c16.3,6.8,27.6,18.9,35.2,34.7c0.9,1.8,1.7,3.7,2.6,5.5
		C771.1,399.8,771.3,399.9,772.4,401.2z M672.4,451.5c0.2,14.3,1.7,27.2,6.9,39.3c7.5,17.7,20.6,28.3,40.2,29.5
		c20.6,1.2,36.1-7.1,45.6-25.6c6.6-12.9,8.4-26.7,8.4-41c0.2-15.7-1.8-31-9.5-45c-9.1-16.4-23.5-24.1-41.9-23.8
		c-18.3,0.3-31.9,8.6-40.5,24.9C674.4,423.1,672.7,437.7,672.4,451.5z"/>
	<path class="st0" d="M1517.5,465.5c-46.5,0-92.4,0-139,0c0.5,9.8,2.8,18.6,6.4,27c12.4,28.3,39.3,32.2,61.9,24.7
		c10.9-3.7,17.7-12.1,22.3-22.4c0.6-1.4,2.5-3.1,3.8-3.2c13.1-0.2,26.1-0.2,39.2-0.2c0.5,0,1.1,0.3,2,0.5
		c-3.1,11.5-8.4,21.7-16,30.6c-9.7,11.4-21.8,19-36.1,23.3c-19.8,6.1-39.8,7.1-59.9,2.3c-28.4-6.6-48.7-23.6-59.4-50.7
		c-12.1-30.1-12.4-60.8,0.5-90.7c15.2-35.2,43.6-51.3,80.9-52.7c23-0.8,44.5,4.9,62.6,20.1c18.7,15.7,27.9,36.5,31,60.3
		C1519.1,444.6,1519.4,454.7,1517.5,465.5z M1474.1,434.8c-1.5-18.1-7.4-33.8-23-43.3c-16-9.7-32.9-9.7-48.8-0.2
		c-16,9.5-20.7,25.8-23.6,43.5C1410.7,434.8,1442,434.8,1474.1,434.8z"/>
	<path class="st0" d="M2073.1,551.6c-24.3-0.8-46.1-7.2-64.3-23.6c-15-13.7-23.8-31-27.6-50.8c-4.5-23.3-3.4-46.2,5.7-68.3
		c10.7-26.3,30.1-43.5,57.4-50.8c27.8-7.4,55-5.4,80.5,9.1c20.1,11.5,32.9,29,39,51.1c8.6,30.9,7.1,61.1-9.1,89.4
		c-12.9,22.9-33.2,35.9-58.5,41C2088.6,550.4,2080.8,550.7,2073.1,551.6z M2022.9,451.7c0.3,15,1.8,29.5,8.8,43
		c8,15.8,20.7,24.7,38.5,25.8c18.4,1.1,33.2-5.5,43.1-21.7c7.1-11.5,9.7-24.1,10.4-37.3c1.1-17.8-0.3-35.2-8.4-51.4
		c-15.8-31.6-60.7-34.5-80.3-5.1C2025.3,419.1,2023.3,435.4,2022.9,451.7z"/>
	<path class="st0" d="M926.7,518.6c1.8-6,3.8-12,5.7-17.8c14.4-46.2,28.9-92.6,43.3-138.8c0.5-1.4,2-3.4,2.9-3.4
		c14.3-0.2,28.4-0.2,43.5-0.2c-1.4,4.6-2.5,8.8-3.8,12.9c-23,73.4-46.1,146.8-69.3,220c-2.1,6.9-4.1,13.7-6.6,20.6
		c-0.5,1.4-2,3.4-3.1,3.4c-14,0.2-28.1,0.2-42.8,0.2c9.2-29.8,18.3-58.8,27.5-88.6c-2-0.2-3.5-0.3-5.1-0.3c-10.1,0-20.3,0-30.4,0
		c-2.3,0-3.7-0.6-4.5-3.1c-19.3-54-38.8-108.1-58.2-162.1c-0.3-0.8-0.5-1.7-0.8-3.1c6.4,0,12.6,0,18.7,0c7.2,0,14.4,0.2,21.5,0
		c2.5,0,3.5,0.9,4.5,3.2c14.7,42.1,29.6,84,44.5,125.9c3.4,9.5,6.8,19,10.1,28.6c0.3,0.9,0.8,1.8,1.2,2.6
		C925.9,518.6,926.4,518.6,926.7,518.6z"/>
	<path class="st0" d="M1540.4,546.9c0-63.1,0-125.6,0-188.3c14.3,0,28.1,0,42.8,0c0,11.7,0,23.3,0,35c0.5,0,0.9,0.2,1.4,0.2
		c0.6-1.2,1.2-2.5,1.8-3.7c17.8-37.5,67.1-48.4,98.6-21.5c12.9,11.1,18.6,26.1,21,42.4c0.9,5.8,1.2,11.7,1.4,17.5
		c0.2,37.6,0,75.4,0,113c0,1.5,0,3.2,0,4.9c-1.8,0.2-3.1,0.3-4.5,0.3c-11.4,0-22.9-0.2-34.2,0.2c-3.8,0.2-4.9-1.1-4.9-4.9
		c0.2-35.3,0.3-70.6-0.2-105.9c-0.2-9.2-1.7-18.7-4.5-27.5c-4.6-14.4-15.7-22-30.7-23c-23.6-1.8-39,10.1-43,33.8
		c-0.9,5.8-1.5,12-1.5,18c-0.2,34.9-0.2,69.9,0,104.7c0,4-0.9,5.4-5.1,5.2c-11.2-0.3-22.6-0.2-33.9-0.2
		C1543.5,546.9,1542.1,546.9,1540.4,546.9z"/>
	<path class="st0" d="M2190.1,546.9c0-63.1,0-125.5,0-188.1c14.3,0,28.4,0,42.8,0c0,11.8,0,23.5,0,35.2c0.3,0.2,0.8,0.3,1.1,0.5
		c0.9-1.8,2-3.5,2.9-5.4c17.4-33.8,58.7-45.5,90.9-25.6c15.4,9.4,23.2,24.1,26.7,41.3c1.5,6.9,2.5,14.3,2.5,21.3
		c0.3,38.8,0.2,77.7,0.2,116.5c0,1.2-0.2,2.6-0.3,4c-14.4,0-28.6,0-43.5,0c0-2,0-3.8,0-5.7c0-35.3,0-70.6,0-105.9
		c0-10.1-1.2-20-5.5-29.2c-5.5-12.1-15-18.9-28.3-20.1c-11.4-1.2-22.3,0.2-31.5,8.1c-8,6.9-11.7,16.1-13.2,26.1
		c-0.9,6-1.4,12.3-1.4,18.4c-0.2,34.2,0,68.6,0,102.9c0,5.7,0,5.7-5.7,5.7c-10.9,0-21.7,0-32.6,0
		C2193.6,546.9,2192.1,546.9,2190.1,546.9z"/>
	<path class="st0" d="M1888.5,406.5c-14.1,0-27.6,0-41.2-0.2c-1.1,0-2.6-0.9-3.1-1.8c-6.8-13.8-18.9-18.7-33-19.8
		c-12.4-0.9-24.7,0.9-34.4,10.1c-8.6,8.3-7.2,21.7,3.7,26.4c10,4.3,20.7,6.8,31.3,9.7c14.6,3.8,29.5,6.4,43.8,11.1
		c13.5,4.3,25,12.1,31.5,25.6c8.9,18.7,8.6,49-17.7,67.1c-14,9.7-29.6,13.8-46.2,15.4c-20.4,2-40.4,0.6-59.4-8
		c-20.6-9.4-33.6-25-38.2-47.3c-0.3-1.1-0.3-2.3-0.5-3.7c14.6,0,28.9,0,43.1,0c0.2,0.3,0.5,0.5,0.6,0.6c4.1,16.6,15,25.8,31.8,27.8
		c12.7,1.5,25.2,1.1,37-4.8c8-3.8,12.7-10.1,12.6-19.5c0-9.2-4.5-16.1-12.9-19c-11.2-4-22.9-6.9-34.5-9.8
		c-14.7-3.7-29.9-5.8-43.9-12.4c-16.4-7.8-27.9-19.3-29.6-38.4c-1.8-20.6,7.1-36.2,24-47.1c19.7-12.7,41.6-16,64.5-14
		c18,1.5,34.9,6.3,49.3,17.8c10,7.8,16.9,17.8,20.3,30.1C1888.1,403.6,1888.2,404.7,1888.5,406.5z"/>
	<path class="st0" d="M1913.6,358.6c14.6,0,28.6,0,42.8,0c0,62.6,0,125.1,0,187.9c-14.3,0-28.4,0-42.8,0
		C1913.6,483.9,1913.6,421.4,1913.6,358.6z"/>
	<path class="st0" d="M1957.8,281.9c0,8,0,16.3,0,24.4c0,6.4-0.2,12.9,0,19.3c0,2.8-0.9,3.5-3.5,3.5c-12.9-0.2-25.8-0.2-38.7,0
		c-2.8,0-3.5-1.1-3.5-3.7c0.2-13.7,0-27.2,0-40.8c0-1.8,0.2-3.5,2.8-3.5c13.8,0,27.5,0,41.3,0.2
		C1956.5,281.2,1957,281.5,1957.8,281.9z"/>
</g>
</svg>
