<?xml version="1.0" encoding="utf-8"?>
<!-- Generator: Adobe Illustrator 23.0.5, SVG Export Plug-In . SVG Version: 6.00 Build 0)  -->
<svg version="1.1" id="Layer_1" xmlns="http://www.w3.org/2000/svg" xmlns:xlink="http://www.w3.org/1999/xlink" x="0px" y="0px"
	 viewBox="0 0 2500 870" style="enable-background:new 0 0 2500 870;" xml:space="preserve">
<g>
	<g>
		<path d="M574.2,570.7c24.7,0,29.4-21.9,31.2-66.8l13.1-273.3C612,220.2,603.6,215,591,215l0.5-5.2h84.4v5.2
			c-19.1,0-21.4,15.6-16.3,46.9l55.9,253.5c3.3,15.1,7,27.6,11.7,36.5L782.6,300c9.8-44.9,6.1-85-12.1-85v-5.2h65.3v5.2
			c-12.6,0-21,5.2-27.5,15.6l13.1,273.3c1.9,44.9,6.5,66.8,31.2,66.8v5.2h-84.4v-5.2c22.4,0,26.6-18.8,25.6-57.4l-9.3-199.2
			l-53.6,243.6c6.1,8.9,13.5,13,24.2,13v5.2h-84.8v-5.2c24.2,0,23.3-21.9,13.5-66.8L633,270.8c-3.3-13-6.5-23.5-10.3-32.3
			l-13.1,275.4c-0.9,38.1,3.3,56.8,25.6,56.8v5.2h-61.1L574.2,570.7L574.2,570.7z"/>
		<path d="M1038.5,570.7c24.2,0,22.8-21.9,13.1-66.8l-51.3-233.7c-3.3-15.6-7.5-27.6-12.1-37L921,503.9
			c-11.2,44.9-13.1,66.8,11.2,66.8c90.4,0,101.6-74.1,101.6-105.9c0-18.3-4.7-25-9.3-25c-12.1,0-15.8,42.8-46.1,42.8
			c-24.7,0-31.2-45.4-31.2-66.8h2.3c3.3,25,14,35.5,29.4,35.5c22.4,0,26.1-19.8,42.4-19.8c12.6,0,17.2,9.4,17.2,33.4
			c0,32.9-12.6,111.1-106.3,111.1h-61.1v-5.2c21.4,0,31.2-16.7,41-50.6L984.9,228c-6.1-8.9-13.5-13-24.2-13v-5.2h57.8l66.7,305.1
			c8.9,37.6,18.2,55.8,40.6,55.8v5.2h-87.2L1038.5,570.7L1038.5,570.7z"/>
		<path d="M1283.7,570.7c24.2,0,19.1-21.9,0.9-66.8L1189,268.2c-6.5-15.1-12.6-27.1-19.1-35.5v271.2c0,44.9,3.7,66.8,28,66.8v5.2
			h-60.6v-5.2c24.2,0,28-21.9,28-66.8V227c-7.9-7.8-16.8-12-28-12v-5.2h91.4v5.2c-24.2,0-19.1,21.9-0.9,66.8l95.6,235.7
			c5.6,13,10.7,22.9,15.8,31.3v-267c0-44.9-3.7-66.8-28-66.8v-5.2h60.6v5.2c-24.2,0-28,21.9-28,66.8v273.8
			c7.9,9.9,16.8,15.1,28,15.1v5.2h-88.1L1283.7,570.7L1283.7,570.7z"/>
		<path d="M1396.1,570.7c24.2,0,28-21.9,28-66.8V281.7c0-44.9-3.7-66.8-28-66.8v-5.2h83.9v5.2c-24.2,0-28,21.9-28,66.8v222.2
			c0,44.9,3.7,66.8,28,66.8v5.2h-83.9V570.7z"/>
		<path d="M1504.2,570.7c24.2,0,28-21.9,28-66.8V281.7c0-44.9-3.7-66.8-28-66.8v-5.2h83.9v5.2c-24.2,0-28,21.9-28,66.8v70.4h20
			c11.2,0,20,2.6,27.5,7.3l14-29.2c21.4-45.9,48.9-115.3,15.8-115.3v-5.2h73.2v5.2c-24.2,0-64.8,76.1-86.2,121l-13.1,26.1
			c50.8,38.1,29.8,172.1,101.2,172.1v41.7c-115.6,0-45.2-218.5-132.9-218.5H1560v146.6c0,44.9,3.7,66.8,28,66.8v5.2h-83.9
			L1504.2,570.7L1504.2,570.7z"/>
		<path d="M1730.3,570.7c24.2,0,28-21.9,28-66.8V281.7c0-44.9-3.7-66.8-28-66.8v-5.2h190.2v72h-2.3c0-60-14.9-66.8-46.6-66.8h-38.7
			c-31.7,0-46.6,6.8-46.6,66.8v90.2c34,1,39.2,23.5,61.1,23.5c21,0,27.5-21.9,28.9-35.5h2.3c0,15.6-3.7,66.8-31.2,66.8
			c-28,0-33.6-47.5-61.1-49.5v126.7c0,60,14.9,66.8,46.6,66.8h47.5c31.7,0,46.6-6.8,46.6-66.8h2.3v72h-199L1730.3,570.7
			L1730.3,570.7z"/>
	</g>
	<g>
		<path d="M842.6,684.7c0,0.4,0.1,0.8,0.2,1.3c0.1,0.5,0.5,0.8,1.2,1.2c0.7,0.3,1.8,0.5,3.4,0.5v0.8h-15.8v-0.8
			c1.9,0,3.2-0.4,3.9-1.1c0.7-0.7,1-1.4,1-2.2v-52c0-0.2,0-0.3,0-0.5c0-0.5-0.1-1-0.2-1.7c-0.1-0.6-0.6-1.2-1.2-1.7
			c-0.7-0.5-1.8-0.8-3.4-0.9v-0.7h4.6l21.8-0.1l3.8,12.5l-0.3,0.3c-1.1-2.5-2.5-4.9-4.4-7.1c-1.9-2.2-4.5-3.8-7.8-4.7
			c-0.5-0.1-1.4-0.2-2.7-0.2c-1.4,0.1-2.3,0.5-2.9,1c-0.6,0.5-1,1.2-1.1,1.9c-0.1,0.6-0.1,1.2-0.1,1.8V650h0.7c0.3,0,0.6,0,0.8,0
			c1.1,0,2.4-0.2,3.6-0.5s2.3-1.2,3.2-2.8c0.9-1.5,1.3-4.1,1.4-7.6h0.4v22.3h-0.4c0-2.4-0.2-4.4-0.6-5.9c-0.4-1.4-1-2.6-1.8-3.3
			s-1.8-1.2-3.1-1.4c-1.2-0.2-2.5-0.3-4.1-0.3v34.2H842.6z"/>
		<path d="M940.6,678.5l-0.3,1.7c-0.3,1.4-0.5,2.6-0.5,3.7c0,0.1,0,0.4,0,1s0.5,1.3,1.5,2s2.8,1,5.4,1.1v0.7h-15.9V688
			c2.1,0,3.7-0.4,4.8-1.2c1.1-0.7,2-1.7,2.5-3c0.6-1.3,1-2.7,1.4-4.3c0.1-0.4,0.2-0.7,0.3-1.1l11-47.7v-0.1c0-0.2-0.2-0.6-0.6-1.2
			c-0.4-0.5-1-1-1.9-1.3c-0.8-0.4-1.7-0.6-2.6-0.6c-0.1,0-0.2,0-0.3,0v-0.7l11.3,0.1l11.3,49.7c0.4,1.4,0.8,2.8,1.1,4.1
			c0.5,2.4,1.1,4.2,1.9,5.5c0.7,1.2,2,1.8,3.8,1.8h0.4v0.8h-15.5v-0.7c0.4,0,0.7,0,1,0c1.2,0,2-0.2,2.5-0.6c0.3-0.2,0.4-0.7,0.4-1.3
			s-0.1-1.3-0.4-2.2l-3.6-15.8H943L940.6,678.5z M951.3,631.8l-8.2,35.4h16.3L951.3,631.8z"/>
		<path d="M1076.1,627.9c2,0.9,3.7,1.9,5.2,3.1c0.2,0.1,0.4,0.2,0.6,0.2c0.1,0,0.3-0.1,0.4-0.2c0.1-0.2,0.3-0.5,0.4-1s0.2-1,0.2-1.5
			s0-1,0-1.4v-0.6h0.5l0.1,16.1l-0.6-0.1c-0.1-1-0.5-2.4-1.1-4.2s-1.5-3.6-2.6-5.5c-1.1-1.8-2.7-3.3-4.5-4.5c-1.5-1-3.2-1.4-5-1.4
			c-0.4,0-0.8,0-1.3,0.1c-2.8,0.3-5.2,1.5-7.3,3.6c-2.1,2.1-3.1,5.1-3.1,8.9v0.1c0.2,2.6,0.9,4.7,2.1,6.5c1.3,1.8,2.8,3.3,4.8,4.7
			c1.9,1.4,3.9,2.6,6.1,3.8c2.5,1.4,4.9,2.9,7.2,4.6c2.3,1.7,4.1,3.8,5.5,6.2c1.2,2.2,1.8,4.9,1.8,8.1c0,0.4,0,0.8,0,1.2
			c-0.4,3.4-1.6,6.2-3.4,8.2c-1.9,2-3.9,3.4-6.2,4.3c-2.3,0.9-4.1,1.3-5.7,1.3h-0.3c-3.3,0-6.1-0.5-8.3-1.4c-2.3-0.9-4.3-2-6.1-3.2
			c-0.2-0.1-0.4-0.2-0.6-0.2c-0.1,0-0.3,0.1-0.5,0.2c-0.2,0.2-0.3,0.5-0.4,1s-0.2,1-0.3,1.5c0,0.5-0.1,1-0.1,1.4v0.6h-0.6l-0.1-16.1
			l0.6,0.1c0.2,1,0.6,2.4,1.2,4.2s1.6,3.6,2.9,5.4c1.3,1.9,3,3.3,5.1,4.5c1.7,1,3.8,1.4,6.1,1.4c0.6,0,1.1,0,1.7-0.1
			c3.1-0.2,5.5-1.3,7.5-3.1c1.9-1.7,2.8-4.5,2.8-8.1v-0.4c-0.1-1.3-0.7-3-2-5c-1.2-2-3.1-4-5.6-5.9c-1.6-1.1-3.2-2.2-4.9-3.2
			c-2.5-1.5-4.9-3.2-7.2-5c-2.3-1.8-4.1-4-5.4-6.7c-1.1-2.2-1.7-4.9-1.7-8.1c0-0.6,0-1.3,0.1-2c0.4-3.8,1.5-6.6,3.3-8.6
			s3.8-3.3,5.9-4.1c2.1-0.7,3.9-1.1,5.4-1.1h0.6C1071.9,626.5,1074.1,627,1076.1,627.9z"/>
		<path d="M1174.7,651.1c0,5.4,0,11,0,16.7s0,10.7,0,15.1v0.6c0,0.6,0.1,1.2,0.2,1.8s0.6,1.2,1.3,1.7c0.7,0.5,1.8,0.8,3.4,1v0.7
			h-15.8v-0.8c1.7,0,2.8-0.3,3.5-0.8s1.1-1.1,1.3-1.9c0.1-0.7,0.2-1.3,0.2-1.9v-0.7c0-5.9,0-12.7,0-20.4s0-14.6,0-20.7v-9.7
			c0-0.6-0.1-1.2-0.2-1.8s-0.5-1.2-1.2-1.7s-1.9-0.8-3.5-1v-0.7h15.8v0.8c-2.1,0.1-3.5,0.6-4.1,1.5s-0.9,1.8-0.9,2.8v5.7
			c0,3.4,0,7.6,0,12.6h19.2v-18.2c0-0.6-0.1-1.2-0.2-1.8s-0.5-1.2-1.2-1.7s-1.9-0.8-3.5-0.9v-0.8h15.8v0.7c-2.1,0.1-3.5,0.6-4.1,1.6
			c-0.6,0.9-0.9,1.8-0.9,2.8v5.7c0,3.6,0,8.2,0,13.6c0,5.5,0,11,0,16.7s0,10.7,0,15.1v0.6c0,0.6,0.1,1.2,0.2,1.8s0.5,1.2,1.2,1.7
			s1.8,0.8,3.4,1v0.7h-15.8V688c1.7,0,2.8-0.3,3.5-0.8s1.1-1.1,1.3-1.9c0.1-0.7,0.2-1.3,0.2-1.9v-21.1c0-4,0-7.7,0-11.3
			L1174.7,651.1L1174.7,651.1L1174.7,651.1z"/>
		<path d="M1298.5,627.3c-2.1,0-3.5,0.6-4.1,1.5s-0.9,1.9-0.9,2.8v5.6c0,3.7,0,8.2,0,13.6c0,5.4,0,11,0,16.6c0,5.7,0,10.7,0.1,15.1
			v0.8c0,0.5,0,1.1,0.2,1.7c0.1,0.6,0.5,1.1,1.2,1.6s1.8,0.8,3.5,1v0.7h-15.8v-0.7c1.6,0,2.8-0.3,3.5-0.8s1.1-1.1,1.3-1.9
			c0.1-0.6,0.2-1.2,0.2-1.9v-41.8v-9v-0.3v-0.5c0-0.5-0.1-1-0.2-1.7c-0.1-0.6-0.5-1.1-1.2-1.6s-1.8-0.8-3.5-0.9v-0.8h15.8
			L1298.5,627.3L1298.5,627.3z"/>
		<path d="M1431.5,657.7c0,17.4-12.4,31.5-27.6,31.5c-15.3,0-27.6-14.1-27.6-31.5c0-17.3,12.4-31.4,27.6-31.4
			C1419.2,626.3,1431.5,640.4,1431.5,657.7z M1390.6,631.6c-7.1,4.4-10.2,11.7-10.2,19.9c0,6.1,1.7,12.6,4.8,18.8
			c5.3,10.6,13.5,17.3,22.1,17.3c3.3,0,6.6-1,9.9-3.1c7-4.6,10.3-12.3,10.3-20.9c0-5.9-1.6-12.2-4.6-18.2c-5.2-10.5-13.2-17-21.8-17
			h-0.1C1397.6,628.5,1394.1,629.5,1390.6,631.6z"/>
		<path d="M1505.2,687.8c2.4,0,4.1-0.7,5.2-2c1.1-1.4,1.8-3.4,2.1-6.2c0.3-2.8,0.4-6.2,0.4-10.4v-35.6c0-1.9-0.4-3.5-1.3-4.6
			c-0.8-1.1-2.4-1.6-4.7-1.6h-0.8v-0.7l12.2,0.1l22.4,45.4l0.1-29.4v-1.4c0-2.4-0.1-4.8-0.4-6.9c-0.3-2.1-0.9-3.8-2-5.2
			s-2.7-2.1-5-2.2v-0.7h15.8v0.8c-2.4,0-4.2,0.7-5.3,2.1c-1.1,1.4-1.8,3.2-2,5.5c-0.3,2.1-0.4,4.5-0.4,7.2v0.7l-0.4,45.8h-0.8
			l-26.9-55.9l0.1,36.5v1.1c0,3.7,0.1,6.8,0.3,9.5c0.3,2.6,0.9,4.6,1.9,5.9c1,1.4,2.7,2.1,5.1,2.1v0.8H1505v-0.7H1505.2z"/>
		<path d="M1651.4,627.9c2,0.9,3.7,1.9,5.2,3.1c0.2,0.1,0.4,0.2,0.6,0.2c0.1,0,0.3-0.1,0.4-0.2c0.1-0.2,0.3-0.5,0.4-1s0.2-1,0.2-1.5
			s0-1,0-1.4v-0.6h0.5l0.1,16.1l-0.6-0.1c-0.1-1-0.5-2.4-1.1-4.2s-1.5-3.6-2.6-5.5c-1.1-1.8-2.7-3.3-4.5-4.5c-1.5-1-3.2-1.4-5-1.4
			c-0.4,0-0.8,0-1.3,0.1c-2.8,0.3-5.2,1.5-7.3,3.6c-2.1,2.1-3.1,5.1-3.1,8.9v0.1c0.2,2.6,0.9,4.7,2.1,6.5c1.3,1.8,2.8,3.3,4.8,4.7
			c1.9,1.4,3.9,2.6,6.1,3.8c2.5,1.4,4.9,2.9,7.2,4.6c2.3,1.7,4.1,3.8,5.5,6.2c1.2,2.2,1.8,4.9,1.8,8.1c0,0.4,0,0.8,0,1.2
			c-0.4,3.4-1.6,6.2-3.4,8.2c-1.9,2-3.9,3.4-6.2,4.3s-4.1,1.3-5.7,1.3h-0.3c-3.3,0-6.1-0.5-8.3-1.4c-2.3-0.9-4.3-2-6.1-3.2
			c-0.2-0.1-0.4-0.2-0.6-0.2c-0.1,0-0.3,0.1-0.5,0.2c-0.2,0.2-0.3,0.5-0.4,1s-0.2,1-0.3,1.5c0,0.5-0.1,1-0.1,1.4v0.6h-0.6l-0.1-16.1
			l0.6,0.1c0.2,1,0.6,2.4,1.2,4.2s1.6,3.6,2.9,5.4c1.3,1.9,3,3.3,5.1,4.5c1.7,1,3.8,1.4,6.1,1.4c0.6,0,1.1,0,1.7-0.1
			c3.1-0.2,5.5-1.3,7.5-3.1c1.9-1.7,2.8-4.5,2.8-8.1v-0.4c-0.1-1.3-0.7-3-2-5c-1.2-2-3.1-4-5.6-5.9c-1.6-1.1-3.2-2.2-4.9-3.2
			c-2.5-1.5-4.9-3.2-7.2-5c-2.3-1.8-4.1-4-5.4-6.7c-1.1-2.2-1.7-4.9-1.7-8.1c0-0.6,0-1.3,0.1-2c0.4-3.8,1.5-6.6,3.3-8.6
			s3.8-3.3,5.9-4.1c2.1-0.7,3.9-1.1,5.4-1.1h0.6C1647.2,626.5,1649.4,627,1651.4,627.9z"/>
	</g>
</g>
</svg>
