<?xml version="1.0" encoding="utf-8"?>
<!-- Generator: Adobe Illustrator 23.0.5, SVG Export Plug-In . SVG Version: 6.00 Build 0)  -->
<svg version="1.1" id="Layer_1" xmlns="http://www.w3.org/2000/svg" xmlns:xlink="http://www.w3.org/1999/xlink" x="0px" y="0px"
	 viewBox="0 0 2500 870" style="enable-background:new 0 0 2500 870;" xml:space="preserve">
<style type="text/css">
	.st0{fill:#FFFFFF;}
	.st1{font-family:'Poppins-SemiBold';}
	.st2{font-size:308.4261px;}
</style>
<g>
	<path class="st0" d="M570.9,229.7c10.7,1.9,21.5,3.5,32.1,5.7c87.8,18.5,157.1,96,165.4,185.2c10.6,113.6-65,212.4-177.2,231.5
		c-6.3,1.1-12.6,2.2-18.9,3.3c-9.4,0-18.8,0-28.2,0c-4.7-0.9-9.4-2-14.1-2.6c-86.6-10.8-160.2-77.6-179.2-162.7
		c-1.9-8.3-3.7-16.7-5.5-25c0-15,0-30.1,0-45.1c0.5-1.2,1.3-2.3,1.5-3.6c14.6-96.7,80.5-165.3,176.2-183.3c7-1.3,14-2.3,21.1-3.5
		C553.1,229.7,562,229.7,570.9,229.7z M542.9,506.8c-15.6,0-30.9,0.3-46.1-0.2c-5.8-0.2-9.2-4.3-9.4-10.4c-0.1-2.3-0.2-4.7,0-7
		c0.6-6.2-1.5-8.9-8.3-8.7c-16.7,0.4-33.4,0.4-50,0c-6.7-0.2-7.8,2.4-7.3,8.3c3.9,44.6,38.2,76.4,83,76.5c40.4,0,80.8-0.2,121.2,0.1
		c12.1,0.1,22.7-3.4,29.9-12.8c10.1-13.1,19.4-27,28.1-41.1c6.6-10.8,14.8-19.8,26.4-24.4c8.7-3.4,10.5-8.6,10.1-17
		c-0.3-6-1.5-7.8-7.7-6.3c-18.9,4.7-37.8,9.2-56.9,13.1c-9,1.8-15.3,6-21.4,12.8c-5.9,6.6-13.5,14.5-21.4,16
		c-13.5,2.6-27.8,0.7-41.6,0.7c0-8.7,0-17.1,0-25.8c10.3,0,20.2,0.5,30-0.2c4.4-0.3,9.7-1.7,12.7-4.5c23-22.2,33.9-54.1,21.6-86.1
		c-9.1-23.6-26-40.9-47.6-52.8c-12.1-6.7-20.2-13.1-17.5-28.5c1.2-6.7-5.7-12.1-12.6-12.5c-6.8-0.4-12.8,4.2-14.1,11.1
		c-0.6,2.9-0.7,5.9-1.1,9c-11.8-2.3-23.1-4.5-35.7-7c43.2,56.6,45.2,113.1,6.6,171.6c10.1,0,19.6,0,29.3,0
		C542.9,489.7,542.9,498,542.9,506.8z M427.9,453.9c3.1,0.2,5.2,0.4,7.2,0.4c19.9,0,39.9-0.2,59.8,0.1c4.9,0.1,7.7-1.6,9.9-5.8
		c15.7-29.6,17.3-59.9,4.2-90.7c-3.2-7.5-8-14.3-12.7-22.4C473,375.8,450.6,414.4,427.9,453.9z"/>
</g>
<text transform="matrix(1 0 0 1 790.5539 535.7195)" class="st0 st1 st2">OpenSea</text>
</svg>
